<svg width="36" height="34" viewBox="0 0 36 34" fill="none" xmlns="http://www.w3.org/2000/svg">
<path fill-rule="evenodd" clip-rule="evenodd" d="M18 29.0774V29.0774C10.5435 29.0774 4.5 23.4988 4.5 16.6158V16.6158C4.5 9.73291 10.5435 4.1543 18 4.1543V4.1543C25.4565 4.1543 31.5 9.73291 31.5 16.6158V16.6158C31.5 23.4988 25.4565 29.0774 18 29.0774Z" stroke="#0A0A0A" stroke-width="1.5" stroke-linecap="round" stroke-linejoin="round"/>
<path d="M18 18.3462V18C18 16.8688 18.7575 16.2554 19.5165 15.7846C20.2575 15.3236 21 14.7226 21 13.6149C21 12.0849 19.6575 10.8457 18 10.8457C16.3425 10.8457 15 12.0849 15 13.6149" stroke="#0A0A0A" stroke-width="1.5" stroke-linecap="round" stroke-linejoin="round"/>
<path d="M17.9985 22.1538C17.7915 22.1538 17.6235 22.3088 17.625 22.4999C17.625 22.691 17.793 22.8461 18 22.8461C18.207 22.8461 18.375 22.691 18.375 22.4999C18.375 22.3088 18.207 22.1538 17.9985 22.1538" stroke="#0A0A0A" stroke-width="1.5" stroke-linecap="round" stroke-linejoin="round"/>
</svg>
