<svg width="157" height="297" viewBox="0 0 157 297" fill="none" xmlns="http://www.w3.org/2000/svg">
<path d="M113.439 0.259603C113.032 -0.11312 112.399 -0.0848876 112.026 0.322662L105.952 6.96406C105.58 7.37161 105.608 8.00414 106.016 8.37687C106.423 8.74959 107.056 8.72136 107.428 8.31381L112.827 2.41034L118.731 7.80933C119.138 8.18206 119.771 8.15383 120.144 7.74628C120.516 7.33873 120.488 6.70619 120.081 6.33347L113.439 0.259603ZM0.397327 292.495C63.8794 299.046 103.495 298.345 126.957 289.932C138.737 285.709 146.522 279.515 151.178 271.263C155.821 263.036 157.281 252.889 156.67 240.891C156.06 228.893 153.373 214.943 149.629 199.046C145.889 183.164 141.061 165.213 136.175 145.308C126.389 105.445 116.284 57.4343 113.763 0.952946L111.765 1.04212C114.295 57.7122 124.433 105.867 134.232 145.785C139.139 165.77 143.94 183.613 147.682 199.504C151.422 215.381 154.072 229.184 154.673 240.993C155.274 252.801 153.818 262.516 149.437 270.28C145.069 278.02 137.723 283.947 126.282 288.05C103.304 296.289 64.1227 297.06 0.602628 290.505L0.397327 292.495Z" fill="black"/>
</svg>
