<svg width="30" height="28" viewBox="0 0 30 28" fill="none" xmlns="http://www.w3.org/2000/svg">
<path d="M26.1774 6.00033H20.403V3.33366C20.403 1.86699 19.1037 0.666992 17.5158 0.666992H11.7413C10.1533 0.666992 8.85407 1.86699 8.85407 3.33366V6.00033H3.07961C1.49164 6.00033 0.192383 7.20033 0.192383 8.66699V24.667C0.192383 26.1337 1.49164 27.3337 3.07961 27.3337H26.1774C27.7654 27.3337 29.0647 26.1337 29.0647 24.667V8.66699C29.0647 7.20033 27.7654 6.00033 26.1774 6.00033ZM11.7413 3.33366H17.5158V6.00033H11.7413V3.33366ZM26.1774 24.667H3.07961V8.66699H26.1774V24.667Z" fill="#161515"/>
<path d="M16.0726 11.334H13.1853V15.334H8.85449V18.0007H13.1853V22.0007H16.0726V18.0007H20.4034V15.334H16.0726V11.334Z" fill="#161515"/>
</svg>
