<svg width="38" height="30" viewBox="0 0 38 30" fill="none" xmlns="http://www.w3.org/2000/svg">
<path d="M36.9219 16H16.0781C15.483 16 15 15.552 15 15C15 14.448 15.483 14 16.0781 14H36.9219C37.517 14 38 14.448 38 15C38 15.552 37.517 16 36.9219 16Z" fill="#E64D4D"/>
<path d="M20.7716 23C20.4574 23 20.1434 22.8773 19.9043 22.6297L13.3595 15.8933C12.8802 15.3996 12.8802 14.5997 13.3595 14.1063L19.9043 7.37004C20.3837 6.87665 21.1608 6.87665 21.6405 7.37004C22.1198 7.86343 22.1198 8.66334 21.6405 9.15673L15.9627 15.0006L21.6405 20.8445C22.1198 21.3379 22.1198 22.1378 21.6405 22.6312C21.3999 22.8773 21.0856 23 20.7716 23Z" fill="#E64D4D"/>
<path d="M15.5 30C6.95391 30 0 23.2704 0 15C0 6.72959 6.95391 0 15.5 0C21.9126 0 27.5744 3.73358 29.9262 9.51286C30.1403 10.0377 29.8725 10.631 29.3302 10.8395C28.7876 11.0442 28.1745 10.789 27.9591 10.2614C25.9286 5.27041 21.0377 2.04544 15.5 2.04544C8.11909 2.04544 2.11363 7.85743 2.11363 15C2.11363 22.1426 8.11909 27.9546 15.5 27.9546C21.0377 27.9546 25.9286 24.7296 27.9591 19.7401C28.1733 19.2122 28.7863 18.9573 29.3302 19.1618C29.8725 19.369 30.1403 19.9635 29.9262 20.4886C27.5744 26.2664 21.9126 30 15.5 30Z" fill="#E64D4D"/>
</svg>
