<svg width="32" height="32" viewBox="0 0 32 32" fill="none" xmlns="http://www.w3.org/2000/svg">
<path d="M16.6661 17.0558V11.3331C16.6661 11.1438 16.6026 10.9851 16.4755 10.8571C16.3484 10.7291 16.1897 10.6656 15.9995 10.6664C15.8093 10.6673 15.6506 10.7309 15.5235 10.8571C15.3964 10.9833 15.3328 11.142 15.3328 11.3331V17.1718C15.3328 17.3158 15.3577 17.4491 15.4075 17.5718C15.4573 17.6962 15.5399 17.8167 15.6555 17.9331L19.7221 21.9998C19.8466 22.1242 19.9999 22.1909 20.1821 22.1998C20.3644 22.2087 20.5257 22.142 20.6661 21.9998C20.8066 21.8576 20.8777 21.7002 20.8795 21.5278C20.8813 21.3553 20.8101 21.198 20.6661 21.0558L16.6661 17.0558ZM15.9995 27.9998C14.5204 27.9998 13.1346 27.7216 11.8421 27.1651C10.5497 26.6087 9.41992 25.8469 8.45281 24.8798C7.4857 23.9127 6.72392 22.7829 6.16747 21.4904C5.61103 20.198 5.33281 18.8122 5.33281 17.3331C5.33281 15.854 5.61103 14.4682 6.16747 13.1758C6.72392 11.8833 7.4857 10.7536 8.45281 9.78644C9.41992 8.81933 10.5497 8.05755 11.8421 7.50111C13.1346 6.94467 14.5204 6.66644 15.9995 6.66644C17.4786 6.66644 18.8644 6.94467 20.1568 7.50111C21.4493 8.05755 22.579 8.81933 23.5461 9.78644C24.5133 10.7536 25.275 11.8833 25.8315 13.1758C26.3879 14.4682 26.6661 15.854 26.6661 17.3331C26.6661 18.8122 26.3879 20.198 25.8315 21.4904C25.275 22.7829 24.5133 23.9131 23.5461 24.8811C22.579 25.8491 21.4493 26.6104 20.1568 27.1651C18.8644 27.7198 17.4786 27.998 15.9995 27.9998ZM3.70614 9.68244C3.56481 9.54022 3.49414 9.38289 3.49414 9.21044C3.49414 9.038 3.56525 8.88067 3.70747 8.73844L7.40481 5.03978C7.52925 4.91533 7.68214 4.84867 7.86347 4.83978C8.04481 4.83089 8.20658 4.89755 8.34881 5.03978C8.49103 5.182 8.56214 5.33889 8.56214 5.51044C8.56214 5.68378 8.49103 5.84111 8.34881 5.98244L4.65147 9.68244C4.52614 9.80778 4.37281 9.87444 4.19147 9.88244C4.01014 9.89044 3.84747 9.82378 3.70614 9.68244ZM28.2915 9.68244C28.1493 9.82467 27.9924 9.89578 27.8208 9.89578C27.6475 9.89578 27.4901 9.82467 27.3488 9.68244L23.6501 5.98644C23.5257 5.86111 23.459 5.70778 23.4501 5.52644C23.4412 5.34511 23.5079 5.18378 23.6501 5.04244C23.7924 4.90111 23.9497 4.83 24.1221 4.82911C24.2946 4.82822 24.4519 4.89933 24.5941 5.04244L28.2915 8.73978C28.4159 8.86422 28.4826 9.01711 28.4915 9.19844C28.5004 9.37978 28.4337 9.54022 28.2915 9.68244Z" fill="black" fill-opacity="0.6"/>
</svg>
