<svg width="35" height="36" viewBox="0 0 35 36" fill="none" xmlns="http://www.w3.org/2000/svg">
<path d="M32.2948 27.5202C32.4052 28.1798 31.8317 28.7694 31.1128 28.7694H23.184C23.0892 28.7723 22.9949 28.7541 22.9079 28.7162C22.8209 28.6783 22.7435 28.6216 22.681 28.5501C22.6186 28.4787 22.5728 28.3943 22.5469 28.303C22.5209 28.2118 22.5156 28.1159 22.5311 28.0223C22.5824 27.7085 22.5829 27.3885 22.5325 27.0746C22.2394 25.2824 21.483 23.5979 20.3382 22.1881C20.0555 21.8435 20.1996 21.3561 20.6384 21.204C21.6191 20.8644 22.6497 20.6915 23.6875 20.6925C28.0382 20.6925 31.6486 23.646 32.2948 27.5202ZM28.2698 14.6348C28.2698 15.8844 27.7734 17.0828 26.8898 17.9664C26.0062 18.8499 24.8078 19.3463 23.5582 19.3463C22.3087 19.3463 21.1103 18.8499 20.2267 17.9664C19.3431 17.0828 18.8467 15.8844 18.8467 14.6348C18.8467 13.3852 19.3431 12.1868 20.2267 11.3032C21.1103 10.4197 22.3087 9.92326 23.5582 9.92326C24.8078 9.92326 26.0062 10.4197 26.8898 11.3032C27.7734 12.1868 28.2698 13.3852 28.2698 14.6348ZM10.7698 18.0002C9.34168 18.0002 7.97208 17.4329 6.96227 16.4231C5.95246 15.4133 5.38515 14.0437 5.38515 12.6156C5.38515 11.1875 5.95246 9.81789 6.96227 8.80807C7.97208 7.79826 9.34168 7.23096 10.7698 7.23096C12.1979 7.23096 13.5675 7.79826 14.5773 8.80807C15.5871 9.81789 16.1544 11.1875 16.1544 12.6156C16.1544 14.0437 15.5871 15.4133 14.5773 16.4231C13.5675 17.4329 12.1979 18.0002 10.7698 18.0002ZM2.65246 28.8677C1.86765 28.8677 1.24169 28.1704 1.36015 27.3963C1.71026 25.1526 2.85112 23.108 4.57671 21.6317C6.30229 20.1555 8.49887 19.3449 10.7698 19.3463C13.0404 19.3452 15.2367 20.1559 16.962 21.6322C18.6873 23.1084 19.828 25.1528 20.178 27.3963C20.2992 28.1704 19.6719 28.8677 18.8884 28.8677H2.65246Z" fill="#666666"/>
</svg>
