<svg width="25" height="26" viewBox="0 0 25 26" fill="none" xmlns="http://www.w3.org/2000/svg">
<path d="M21.462 7H19V4.387C19 2.519 17.526 1 15.653 1H9.3475C7.4735 1 6 2.519 6 4.387V7H3.5375C1.8595 7 0.5 8.2955 0.5 9.9685V21.472C0.5 23.1445 1.8595 24.5 3.5375 24.5H21.462C23.1395 24.5 24.5 23.1445 24.5 21.4715V9.9685C24.5 8.2955 23.1395 7 21.462 7ZM8 4.387C8 3.6875 8.646 3 9.3475 3H15.653C16.3525 3 17 3.6875 17 4.387V7H8V4.387ZM18 18H14.5V21.5H10.5V18H7V14H10.5V10.5H14.5V14H18V18Z" fill="black" fill-opacity="0.6"/>
</svg>
