<svg width="40" height="40" viewBox="0 0 40 40" fill="none" xmlns="http://www.w3.org/2000/svg">
<path d="M19.9993 3.3335C20.8834 3.3335 21.7313 3.68469 22.3564 4.30981C22.9815 4.93493 23.3327 5.78277 23.3327 6.66683C23.3327 7.55088 22.9815 8.39873 22.3564 9.02385C21.7313 9.64897 20.8834 10.0002 19.9993 10.0002C19.1153 10.0002 18.2674 9.64897 17.6423 9.02385C17.0172 8.39873 16.666 7.55088 16.666 6.66683C16.666 5.78277 17.0172 4.93493 17.6423 4.30981C18.2674 3.68469 19.1153 3.3335 19.9993 3.3335ZM17.4993 11.6668H22.4993C23.3834 11.6668 24.2313 12.018 24.8564 12.6431C25.4815 13.2683 25.8327 14.1161 25.8327 15.0002V24.1668H23.3327V36.6668H16.666V24.1668H14.166V15.0002C14.166 14.1161 14.5172 13.2683 15.1423 12.6431C15.7674 12.018 16.6153 11.6668 17.4993 11.6668Z" fill="#666666"/>
<path d="M33.1147 30.1398C34.2197 30.1398 34.8997 28.5248 34.8997 27.5048C34.8997 26.6548 34.4747 25.6348 33.6247 25.6348C32.5197 25.6348 31.8397 27.2498 31.8397 28.2698C31.8397 29.1198 32.2647 30.1398 33.1147 30.1398ZM29.8847 30.1398C30.7347 30.1398 31.1597 29.1198 31.1597 28.2698C31.1597 27.1648 30.4797 25.5498 29.3747 25.5498C28.5247 25.5498 28.0997 26.5698 28.0997 27.4198C28.0147 28.5248 28.6947 30.1398 29.8847 30.1398ZM36.1747 29.2898C35.0697 29.2898 34.3047 30.8198 34.3047 31.9248C34.3047 32.6898 34.6447 33.4548 35.4097 33.4548C36.5147 33.4548 37.2797 31.9248 37.2797 30.8198C37.2797 30.0548 36.8547 29.2898 36.1747 29.2898ZM28.7797 31.9248C28.7797 30.8198 27.9297 29.2898 26.9097 29.2898C26.1447 29.2898 25.8047 30.0548 25.8047 30.8198C25.8047 31.9248 26.6547 33.4548 27.6747 33.4548C28.4397 33.4548 28.7797 32.6898 28.7797 31.9248ZM31.4997 31.7548C29.7997 31.7548 27.5047 34.4748 27.5047 36.3448C27.5047 37.1948 28.0997 37.4498 28.7797 37.4498C29.7997 37.4498 30.5647 36.7698 31.4997 36.7698C32.3497 36.7698 33.1147 37.4498 34.0497 37.4498C34.7297 37.4498 35.4947 37.2798 35.4947 36.3448C35.4947 34.4748 33.1997 31.7548 31.4997 31.7548Z" fill="#666666"/>
</svg>
