<svg width="34" height="34" viewBox="0 0 34 34" fill="none" xmlns="http://www.w3.org/2000/svg">
<path fill-rule="evenodd" clip-rule="evenodd" d="M11.9252 4.60417C12.3219 3.76833 13.1761 3.1875 14.1664 3.1875H19.8331C20.8219 3.1875 21.6761 3.76833 22.0742 4.60417C23.0418 4.61267 23.7969 4.65658 24.4712 4.92008C25.2762 5.23497 25.9763 5.7701 26.4914 6.46425C27.0113 7.16267 27.255 8.06083 27.5907 9.29475L27.6432 9.48742L28.479 12.5573C29.0363 12.8385 29.5248 13.239 29.9098 13.7303C30.791 14.8594 30.9468 16.2038 30.791 17.7452C30.638 19.2412 30.1676 21.1253 29.5783 23.4841L29.5401 23.6328C29.1675 25.1246 28.8643 26.3358 28.5059 27.2807C28.1291 28.2667 27.6531 29.0742 26.8668 29.6877C26.082 30.3011 25.1824 30.566 24.1355 30.6935C23.1311 30.8125 21.883 30.8125 20.3459 30.8125H13.6536C12.1165 30.8125 10.867 30.8125 9.86398 30.6921C8.81565 30.5674 7.91748 30.3011 7.13123 29.6862C6.3464 29.0742 5.8704 28.2667 5.49357 27.2807C5.13373 26.3358 4.83198 25.1246 4.4594 23.6328L4.42115 23.4841C3.83182 21.1253 3.36007 19.2412 3.20848 17.7466C3.05265 16.2024 3.20848 14.8594 4.08823 13.7303C4.48915 13.2175 4.9694 12.8378 5.51907 12.5573L6.3549 9.48742L6.40873 9.29475C6.74448 8.06083 6.98815 7.16267 7.50807 6.46283C8.02335 5.76921 8.72342 5.23458 9.52823 4.92008C10.2026 4.65658 10.9562 4.61125 11.9252 4.60417ZM11.9266 6.73342C10.9888 6.74333 10.6134 6.77875 10.3017 6.90058C9.86818 7.07013 9.49113 7.35832 9.21373 7.73217C8.9644 8.06792 8.81707 8.53683 8.40623 10.0484L7.90473 11.8844C9.37523 11.6875 11.2736 11.6875 13.6309 11.6875H20.3671C22.7259 11.6875 24.6242 11.6875 26.0933 11.8844L25.5932 10.047C25.181 8.53542 25.0351 8.0665 24.7857 7.73075C24.5083 7.3569 24.1313 7.06871 23.6977 6.89917C23.3861 6.77733 23.0092 6.74192 22.0714 6.732C21.87 7.1551 21.5529 7.51248 21.1568 7.76271C20.7606 8.01294 20.3016 8.14578 19.8331 8.14583H14.1664C13.6978 8.14578 13.2389 8.01294 12.8427 7.76271C12.4465 7.51248 12.1294 7.1551 11.9281 6.732M14.1664 5.3125C14.0725 5.3125 13.9824 5.34981 13.916 5.41623C13.8495 5.48265 13.8122 5.57274 13.8122 5.66667C13.8122 5.7606 13.8495 5.85068 13.916 5.9171C13.9824 5.98352 14.0725 6.02083 14.1664 6.02083H19.8331C19.927 6.02083 20.0171 5.98352 20.0835 5.9171C20.1499 5.85068 20.1872 5.7606 20.1872 5.66667C20.1872 5.57274 20.1499 5.48265 20.0835 5.41623C20.0171 5.34981 19.927 5.3125 19.8331 5.3125H14.1664ZM8.07473 14.0052C6.78557 14.1922 6.16082 14.5322 5.76557 15.0393C5.3689 15.5451 5.19182 16.2322 5.32357 17.5298C5.45815 18.8558 5.89023 20.5898 6.50507 23.0548C6.8989 24.6245 7.1709 25.7125 7.48257 26.5257C7.78007 27.3105 8.07332 27.7256 8.44165 28.0132C8.80857 28.2993 9.28173 28.4821 10.1176 28.5827C10.9817 28.6861 12.1009 28.6875 13.7216 28.6875H20.2807C21.9 28.6875 23.022 28.6861 23.8847 28.5827C24.7206 28.4835 25.1937 28.2993 25.5606 28.0132C25.929 27.7256 26.2208 27.3105 26.5212 26.5257C26.83 25.7125 27.1034 24.6245 27.4958 23.0548C28.1121 20.5898 28.5441 18.8558 28.6773 17.5298C28.8105 16.2322 28.632 15.5437 28.2367 15.0379C27.8415 14.5322 27.2167 14.1922 25.9262 14.0052C24.6087 13.8153 22.8208 13.8125 20.2807 13.8125H13.7216C11.1815 13.8125 9.39365 13.8153 8.07615 14.0052" fill="black"/>
</svg>
