<svg width="38" height="36" viewBox="0 0 38 36" fill="none" xmlns="http://www.w3.org/2000/svg">
<path d="M7.66335 25.125C7.29661 29.46 10.6278 33 15.0593 33H22.3788C27.3603 33 30.7832 29.055 29.958 24.225C29.087 19.155 24.1055 15 18.8642 15C13.1797 15 8.13705 19.56 7.66335 25.125Z" stroke="#161515" stroke-width="1.64189" stroke-linecap="round" stroke-linejoin="round"/>
<path d="M16.9237 11.249C19.0336 11.249 20.7439 9.57009 20.7439 7.49902C20.7439 5.42796 19.0336 3.74902 16.9237 3.74902C14.8139 3.74902 13.1035 5.42796 13.1035 7.49902C13.1035 9.57009 14.8139 11.249 16.9237 11.249Z" stroke="#161515" stroke-width="1.64189" stroke-linecap="round" stroke-linejoin="round"/>
<path d="M27.3608 13.0498C29.0487 13.0498 30.417 11.7067 30.417 10.0498C30.417 8.39295 29.0487 7.0498 27.3608 7.0498C25.673 7.0498 24.3047 8.39295 24.3047 10.0498C24.3047 11.7067 25.673 13.0498 27.3608 13.0498Z" stroke="#161515" stroke-width="1.64189" stroke-linecap="round" stroke-linejoin="round"/>
<path d="M33.0138 19.0498C34.2797 19.0498 35.3059 18.0424 35.3059 16.7998C35.3059 15.5572 34.2797 14.5498 33.0138 14.5498C31.7479 14.5498 30.7217 15.5572 30.7217 16.7998C30.7217 18.0424 31.7479 19.0498 33.0138 19.0498Z" stroke="#161515" stroke-width="1.64189" stroke-linecap="round" stroke-linejoin="round"/>
<path d="M6.99073 16.0498C8.6786 16.0498 10.0469 14.7067 10.0469 13.0498C10.0469 11.393 8.6786 10.0498 6.99073 10.0498C5.30286 10.0498 3.93457 11.393 3.93457 13.0498C3.93457 14.7067 5.30286 16.0498 6.99073 16.0498Z" stroke="#161515" stroke-width="1.64189" stroke-linecap="round" stroke-linejoin="round"/>
</svg>
