<svg width="36" height="36" viewBox="0 0 36 36" fill="none" xmlns="http://www.w3.org/2000/svg">
<path d="M20.6516 15.3484C22.1161 16.8128 22.1161 19.1872 20.6516 20.6516C19.1872 22.1161 16.8128 22.1161 15.3484 20.6516C13.8839 19.1872 13.8839 16.8128 15.3484 15.3484C16.8128 13.8839 19.1872 13.8839 20.6516 15.3484" stroke="black" stroke-width="1.5" stroke-linecap="round" stroke-linejoin="round"/>
<path fill-rule="evenodd" clip-rule="evenodd" d="M22.2737 6.1803L23.1482 6.4713C23.9492 6.7383 24.4907 7.4883 24.4907 8.3328V9.5883C24.4907 10.6563 25.3427 11.5278 26.4107 11.5503L27.6677 11.5773C28.3952 11.5923 29.0552 12.0108 29.3807 12.6618L29.7932 13.4868C30.1712 14.2428 30.0227 15.1548 29.4257 15.7518L28.5377 16.6398C27.7832 17.3943 27.7697 18.6138 28.5077 19.3848L29.3777 20.2938C29.8817 20.8203 30.0527 21.5808 29.8217 22.2723L29.5307 23.1468C29.2637 23.9478 28.5137 24.4893 27.6692 24.4893H26.4137C25.3457 24.4893 24.4742 25.3413 24.4517 26.4093L24.4247 27.6663C24.4097 28.3938 23.9912 29.0538 23.3402 29.3793L22.5152 29.7918C21.7592 30.1698 20.8472 30.0213 20.2502 29.4243L19.3622 28.5363C18.6077 27.7818 17.3882 27.7683 16.6172 28.5063L15.7082 29.3763C15.1817 29.8803 14.4212 30.0513 13.7297 29.8203L12.8552 29.5293C12.0542 29.2623 11.5127 28.5123 11.5127 27.6678V26.4123C11.5127 25.3443 10.6607 24.4728 9.59273 24.4503L8.33573 24.4233C7.60823 24.4083 6.94823 23.9898 6.62273 23.3388L6.21023 22.5138C5.83223 21.7578 5.98073 20.8458 6.57773 20.2488L7.46573 19.3608C8.22023 18.6063 8.23373 17.3868 7.49573 16.6158L6.62573 15.7068C6.12023 15.1788 5.94923 14.4168 6.18023 13.7268L6.47123 12.8523C6.73823 12.0513 7.48823 11.5098 8.33273 11.5098H9.58823C10.6562 11.5098 11.5277 10.6578 11.5502 9.5898L11.5772 8.3328C11.5952 7.6053 12.0122 6.9453 12.6632 6.6198L13.4882 6.2073C14.2442 5.8293 15.1562 5.9778 15.7532 6.5748L16.6412 7.4628C17.3957 8.2173 18.6152 8.2308 19.3862 7.4928L20.2952 6.6228C20.8217 6.1203 21.5837 5.9493 22.2737 6.1803V6.1803Z" stroke="black" stroke-width="1.5" stroke-linecap="round" stroke-linejoin="round"/>
</svg>
