<svg width="35" height="26" viewBox="0 0 35 26" fill="none" xmlns="http://www.w3.org/2000/svg">
<g opacity="0.8">
<path d="M34.8268 8.50778L32.9887 2.19556C32.6036 0.895556 31.2382 0 29.6452 0H5.32983C3.75432 0 2.37138 0.91 2.00376 2.19556L0.165665 8.50778C-0.25447 9.98111 0.130654 11.4833 1.25101 12.6678C1.39106 12.8267 1.58362 12.9422 1.74117 13.0867V23.1111C1.74117 24.7 3.31668 26 5.2423 26H29.7502C31.6758 26 33.2513 24.7 33.2513 23.1111V13.0867C33.4089 12.9567 33.6014 12.8267 33.7415 12.6822C34.8618 11.4978 35.2645 9.98111 34.8268 8.50778ZM29.5926 2.87444L31.4307 9.18667C31.6058 9.79333 31.4482 10.4 30.9931 10.8767C30.748 11.1367 30.2228 11.5556 29.3476 11.5556C28.2797 11.5556 27.3519 10.8478 27.2294 9.90889L26.214 2.88889L29.5926 2.87444ZM19.2468 2.88889H22.6779L23.6232 9.41778C23.7107 9.98111 23.5007 10.5444 23.0455 10.9633C22.6604 11.3389 22.1002 11.5556 21.3825 11.5556C20.2096 11.5556 19.2468 10.7033 19.2468 9.66333V2.88889ZM11.3518 9.41778L12.3146 2.88889H15.7457V9.66333C15.7457 10.7033 14.7829 11.5556 13.4875 11.5556C12.8923 11.5556 12.3496 11.3389 11.9295 10.9633C11.4918 10.5444 11.2817 9.98111 11.3518 9.41778ZM3.56176 9.18667L5.32983 2.88889H8.77844L7.76311 9.90889C7.62306 10.8478 6.71277 11.5556 5.64493 11.5556C4.78715 11.5556 4.24448 11.1367 4.01691 10.8767C3.54425 10.4144 3.3867 9.79333 3.56176 9.18667ZM5.2423 23.1111V14.4011C5.38234 14.4156 5.50488 14.4444 5.64493 14.4444C7.16792 14.4444 8.55086 13.9244 9.56619 13.0722C10.6165 13.9389 12.017 14.4444 13.61 14.4444C15.133 14.4444 16.4984 13.9244 17.5137 13.1011C18.5466 13.9244 19.947 14.4444 21.5225 14.4444C22.993 14.4444 24.3935 13.9389 25.4438 13.0722C26.4591 13.9244 27.8421 14.4444 29.3651 14.4444C29.5051 14.4444 29.6276 14.4156 29.7677 14.4011V23.1111H5.2423Z" fill="black"/>
</g>
</svg>
